<svg viewBox="0 0 792 43.6">
<style type="text/css">
	.st0{fill:#FFFFFF;}
</style>
<g>
	<path class="st0" d="M161.6,11.3c-6.1-2.9-11.9-4.5-18.2-4.5c-4.2,0-7.1,0.5-9.5,1.3c-2.1,1.1-3.2,2.4-3.2,4c0,1.8,1.1,3.2,3.4,4
		c1.6,0.5,4.5,1.1,8.2,1.3c5.5,0.3,9.2,0.5,10.8,0.8c5,0.8,8.7,1.8,11.1,3.7c2.4,1.8,3.7,4.5,3.7,7.7c0,4.2-1.8,7.7-5.5,9.8
		c-3.7,2.4-9.2,3.4-16.1,3.4c-10.3,0-18.2-2.4-23.8-6.9l3.7-4.8c6.3,4,12.9,5.8,20.3,5.8c4.8,0,8.4-0.5,10.8-1.8s3.7-2.9,3.7-5.3
		c0-2.6-1.6-4.2-4.8-5c-1.6-0.5-6.3-0.8-13.7-1.3c-6.6-0.5-11.4-1.3-14-2.6c-3.2-1.6-4.8-4.2-4.8-7.9s1.8-6.9,5.3-9
		c3.4-2.1,8.4-3.2,15-3.2c8.7,0,15.8,1.8,21.6,5.8L161.6,11.3z"/>
	<rect x="177.7" y="1.5" class="st0" width="6.6" height="40.1"/>
	<polygon class="st0" points="251.9,41.9 245.3,41.9 245.3,9.2 245,9.2 224.1,35.3 203.5,9.2 203.3,9.2 203.3,41.9 196.7,41.9 
		196.7,1.8 205.1,1.8 224.4,26.1 243.7,1.8 251.9,1.8 	"/>
	<path class="st0" d="M313.6,21.9c0,6.6-2.6,11.9-8.2,15.8c-4.8,3.4-10.6,5.3-17.7,5.3c-7.1,0-12.9-1.8-17.7-5.3
		c-5.3-4-8.2-9.2-8.2-15.8c0-6.3,2.6-11.6,8.2-15.8c4.8-3.7,10.6-5.5,17.7-5.5c6.9,0,12.9,1.8,17.4,5.5
		C311,10.2,313.6,15.5,313.6,21.9 M306.8,21.9c0-4.8-2.1-8.4-6.1-11.4c-3.4-2.6-7.7-3.7-12.7-3.7c-5.5,0-10,1.3-13.7,4.2
		c-3.4,2.9-5.3,6.6-5.3,10.8c0,4.5,1.6,8.2,5.3,11.1c3.4,2.9,7.9,4.2,13.7,4.2s10.3-1.3,13.7-4.2C304.9,30,306.8,26.4,306.8,21.9"/>
	<polygon class="st0" points="362.7,1.8 362.7,34.8 332.1,1.8 323.9,1.8 323.9,41.9 330.5,41.9 330.5,9.2 361.2,41.9 369.3,41.9 
		369.3,1.8 	"/>
	<polygon class="st0" points="75,1.3 28.5,35.1 10.3,21.9 28.5,8.7 41.4,18.2 46.5,14.5 28.5,1.3 0,21.9 28.5,42.7 75,8.7 
		93.2,21.9 75,35.1 62.3,25.8 57,29.5 75,42.7 103.5,21.9 	"/>
	<path class="st0" d="M438.5,34.8c-4.5,5.5-11.6,8.7-20.3,8.7c-6.9,0-12.9-2.1-17.2-5.5c-5-4.2-7.4-9.5-7.4-16.1
		c0-6.3,2.6-11.9,7.4-15.8c4.2-3.7,10.6-5.8,17.2-5.8c8.7,0,15.3,2.6,20.6,8.7l-3.4,2.1c-5-5-10.3-7.4-17.2-7.4
		c-5.5,0-10.6,1.8-14.3,4.8c-4.2,3.4-6.3,7.9-6.3,13.5c0,10.8,8.2,18.2,20.6,18.2c10.6,0,17.7-5,20.1-14.5h-21.6v-3.4h26.1
		C442.2,27.4,440.9,31.6,438.5,34.8"/>
	<rect x="453.3" y="1.5" class="st0" width="3.7" height="40.9"/>
	<polygon class="st0" points="473.9,5 473.9,19 497.9,19 497.9,22.7 473.9,22.7 473.9,42.5 470.4,42.5 470.4,1.5 508.5,1.5 508.5,5 
			"/>
	<polygon class="st0" points="536.7,5 536.7,42.5 533,42.5 533,5 513.5,5 513.5,1.5 556.2,1.5 556.2,5 	"/>
	<path class="st0" d="M601.7,10.5c-4.5-4.8-10.3-6.9-18-6.9c-5.5,0-10.6,1.6-14,4.5c-4.5,3.4-6.6,8.2-6.6,13.7
		c0,10.8,8.2,18.2,20.6,18.2c7.9,0,13.7-2.1,18-6.9l3.2,1.8c-4,5.3-11.1,8.2-20.3,8.2c-5.3,0-10-1.1-14-3.2
		c-7.1-3.7-11.1-10.3-11.1-18.5c0-6.6,2.6-11.9,7.7-16.1c4.2-3.4,10.3-5.5,16.9-5.5c9.2,0,16.6,3.2,21.1,9L601.7,10.5z"/>
	<path class="st0" d="M634.4,5h-0.5l-12.4,23.2h25.1L634.4,5z M654.2,42.5l-5.5-10.6h-28.8l-5.8,10.6h-4.2l21.6-40.9h5.5l21.6,40.9
		H654.2z"/>
	<path class="st0" d="M705.4,13.4c0-5.8-3.2-8.4-9.8-8.4H670v16.9h27C702.2,22.1,705.4,19,705.4,13.4 M705.1,42.5l-12.9-16.9h-22.4
		v16.9h-3.7V1.6H697c7.7,0,12.4,4.8,12.4,12.1c0,7.1-4.5,11.4-12.4,11.9l12.4,16.9H705.1z"/>
	<path class="st0" d="M758.2,34c2.6-3.2,4.2-7.1,4.2-11.6c0-10.3-6.9-17.2-16.9-17.2h-21.1V39h22.2C751.3,38.8,755.3,37.2,758.2,34
		 M766.7,22.4c0,5.5-2.1,10.6-5.8,14.3s-8.7,5.5-14.5,5.5h-25.6V1.5H745C758.5,1.5,766.7,9.5,766.7,22.4"/>
	<path class="st0" d="M785.1,8.4c0-1.1-0.5-1.3-1.8-1.3H782v2.6h1.3C784.3,9.7,785.1,9.2,785.1,8.4 M784.9,15l-1.8-4h-1.3v4H780V5.5
		h3.4c2.6,0,4,1.1,4,2.6c0,1.1-0.5,1.8-2.1,2.4l2.1,4.2L784.9,15L784.9,15z M783.3,2.9c-4.2,0-7.4,3.2-7.4,7.4s3.2,7.4,7.4,7.4
		s7.4-3.2,7.4-7.4S787.5,2.9,783.3,2.9 M783,19c-4.8,0-8.4-4-8.4-9c0-4.5,4-8.4,8.7-8.4c5,0,8.7,3.7,8.7,8.7C792,15,788,19,783,19"
		/>
</g>
</svg>
