<svg viewBox="0 0 84.2 36" id="logo-premium-outlets">
<path class="ccst0" d="M84 34.6c0-.7-.5-1-1.5-1.1-.8-.1-1.5-.1-1.9-.2-.2-.1-.3-.2-.3-.4 0-.3.4-.5 1.3-.5.6 0 1.2.1 1.8.4l.4-.4c-.6-.4-1.3-.6-2.1-.6-1.3 0-2 .5-2 1.2 0 .8.6 1 1.8 1 1.2.1 1.8.1 1.8.6 0 .4-.5.7-1.4.7-.7 0-1.4-.2-2-.6l-.4.5c.6.5 1.4.7 2.4.7 1.4 0 2.1-.5 2.1-1.3m-7.2-2.1h1.9v-.6h-4.5v.6h1.9v3.3h.7zm-3.9-.6h-4v3.9H73v-.6h-3.5v-1.1h2.4v-.6h-2.4v-1h3.4zm-8.5 0h-.7v3.9h3.7v-.6h-3zm-2.1 0h-4.5v.6h1.9v3.3h.7v-3.3h1.9zm-9.7 0h-.7v2.7c0 .8.9 1.4 2.2 1.4 1.4 0 2.2-.6 2.2-1.4v-2.7h-.7v2.5c0 .6-.5 1-1.6 1-1 0-1.6-.3-1.6-1v-2.5zm-3.4.4c-.4-.3-1.1-.5-1.7-.5-.7 0-1.3.2-1.7.5-.5.4-.8.9-.8 1.6 0 .6.3 1.2.8 1.6.4.3 1.1.5 1.7.5.7 0 1.3-.2 1.7-.5.5-.4.8-.9.8-1.6 0-.7-.2-1.2-.8-1.6zm-1.7 3.1c-1.1 0-1.9-.6-1.9-1.5s.8-1.5 1.9-1.5c.5 0 .9.1 1.3.4.4.3.6.7.6 1.1 0 .8-.8 1.5-1.9 1.5zM36 31.9h-.8v3.9h.7v-3.2l2 2.6 2.1-2.6v3.2h.6v-3.9h-.8l-1.9 2.4zm-6.7 0h-.7v2.7c0 .8.9 1.4 2.2 1.4 1.4 0 2.2-.6 2.2-1.4v-2.7h-.7v2.5c0 .6-.5 1-1.6 1-1 0-1.6-.3-1.6-1v-2.5zm-3.4 0h.7v4h-.7zm-2.7 3.9h.6v-3.9H23l-1.9 2.4-1.9-2.4h-.8v3.9h.6v-3.2l2.1 2.6 2-2.6h.1zm-6.7-3.9h-4v3.9h4.1v-.6h-3.5v-1.1h2.3v-.6h-2.3v-1h3.4zm-6.9 2.4c.6-.1 1-.5 1-1.2 0-.8-.5-1.2-1.3-1.2H6.2v4h.7v-1.5h2l1.1 1.5h.8l-1.2-1.6zm-2.8-.6v-1.3h2.3c.6 0 .8.2.8.7 0 .4-.3.6-.8.6H6.8zm-3.5-1.8H.2v4h.7v-1.5h2.4c.9 0 1.4-.4 1.4-1.2-.1-.8-.6-1.3-1.4-1.3zm-.1 1.8H.8v-1.3h2.3c.5 0 .8.2.8.7.1.4-.2.6-.7.6zM47.8.1L35.7 8.9 31 5.5 35.7 2 39 4.5l1.4-1L35.7.1l-7.4 5.4 7.4 5.4L47.8 2l4.7 3.5-4.7 3.4-3.4-2.4-1.3.9 4.7 3.5 7.4-5.4zm-28 18.5c-1.5-.8-3.1-1.2-4.7-1.2-1.1 0-1.9.1-2.4.4-.6.2-.8.6-.8 1 0 .5.3.8.9 1 .4.2 1.1.3 2.1.3 1.4.1 2.4.2 2.9.2 1.3.2 2.3.5 2.9 1 .6.5.9 1.1.9 2 0 1.1-.5 2-1.5 2.6-1 .6-2.4.9-4.2.9-2.7 0-4.7-.6-6.2-1.8l1-1.3c1.6 1 3.4 1.5 5.3 1.5 1.2 0 2.2-.2 2.8-.5.6-.3 1-.8 1-1.3 0-.7-.4-1.1-1.3-1.3-.4-.1-1.6-.2-3.6-.4-1.7-.1-2.9-.3-3.6-.7-.8-.4-1.2-1.1-1.2-2 0-1 .5-1.8 1.4-2.3.9-.6 2.2-.8 3.9-.8 2.2 0 4.1.5 5.6 1.5l-1.2 1.2zm4.2-2.4h1.7v10.4H24zm19.3 10.4h-1.7v-8.5h-.1l-5.4 6.8-5.3-6.8h-.1v8.5H29V16.2h2.1l5 6.3 5.1-6.3h2.1zm14.3-5.2c0-1.2-.5-2.2-1.6-3-.9-.7-2-1-3.3-1-1.5 0-2.6.4-3.5 1.1-.9.7-1.4 1.7-1.4 2.8 0 1.2.4 2.1 1.3 2.9.9.7 2.1 1.1 3.6 1.1s2.7-.4 3.6-1.1c.8-.7 1.3-1.7 1.3-2.8m1.8 0c0 1.7-.7 3.1-2.1 4.1-1.2.9-2.8 1.4-4.6 1.4-1.8 0-3.4-.5-4.6-1.4-1.4-1.1-2.1-2.4-2.1-4.1 0-1.7.7-3 2.1-4.1 1.2-.9 2.8-1.4 4.6-1.4 1.8 0 3.3.5 4.6 1.4 1.4 1 2.1 2.4 2.1 4.1m12.7-5.2v8.5l-7.9-8.5H62v10.4h1.8V18l7.9 8.6h2.2V16.2zm4.7-.5c-.6 0-1.2.5-1.2 1.2 0 .6.5 1.2 1.2 1.2.6 0 1.2-.5 1.2-1.2-.1-.6-.6-1.2-1.2-1.2m0 2.6c-.8 0-1.4-.6-1.4-1.4 0-.8.6-1.4 1.4-1.4.8 0 1.4.6 1.4 1.4 0 .7-.7 1.4-1.4 1.4m.3-.7h.2L77 17c.2 0 .4-.2.4-.4s-.2-.4-.5-.4h-.6v1.5h.2V17h.2l.4.6zm-.6-.8v-.5h.3c.2 0 .3.1.3.3 0 .2-.1.3-.3.3h-.3z"></path>
</svg>
