<svg viewBox="0 0 652.3 38.7">
<g>
	<g>
		<path class="st0" d="M141.1,10.4c-5.2-2.7-10.6-4-16-4c-3.6,0-6.4,0.4-8.3,1.3c-1.9,0.8-2.9,2-2.9,3.5c0,1.6,1,2.7,3.1,3.4
			c1.5,0.5,3.9,0.9,7.2,1.1c4.9,0.3,8.1,0.6,9.6,0.8c4.4,0.6,7.7,1.7,9.8,3.3c2.1,1.6,3.2,3.8,3.2,6.8c0,3.7-1.7,6.6-5,8.7
			c-3.3,2-8.1,3.1-14.3,3.1c-9,0-16-2-21-5.9l3.2-4.2c5.5,3.4,11.5,5.1,17.8,5.1c4.1,0,7.3-0.6,9.6-1.7c2.2-1.1,3.3-2.6,3.3-4.5
			c0-2.2-1.4-3.7-4.3-4.5c-1.5-0.4-5.5-0.8-12.1-1.2c-5.8-0.4-9.9-1.2-12.2-2.3c-2.7-1.4-4.1-3.7-4.1-6.9c0-3.3,1.6-5.9,4.7-7.8
			c3.1-1.9,7.5-2.9,13.1-2.9c7.6,0,14,1.7,19.1,5.2L141.1,10.4z"/>
		<rect x="155.3" y="2.1" class="st0" width="5.9" height="35.3"/>
		<polygon class="st0" points="220.6,37.4 214.8,37.4 214.8,8.6 214.6,8.6 196.3,31.6 178.1,8.6 178,8.6 178,37.4 172.1,37.4 
			172.1,2.1 179.4,2.1 196.4,23.5 213.4,2.1 220.6,2.1 		"/>
		<path class="st0" d="M275,19.7c0,5.8-2.4,10.5-7.1,14c-4.2,3.1-9.3,4.7-15.5,4.7c-6.2,0-11.4-1.6-15.6-4.7
			c-4.7-3.6-7.1-8.2-7.1-14c0-5.7,2.4-10.3,7.2-13.9c4.2-3.2,9.4-4.8,15.5-4.8c6.1,0,11.3,1.6,15.5,4.8C272.6,9.4,275,14.1,275,19.7
			 M268.9,19.7c0-4.1-1.8-7.5-5.3-10c-3-2.2-6.8-3.3-11.3-3.3c-4.9,0-8.9,1.3-12,3.8c-3.1,2.5-4.6,5.7-4.6,9.6c0,4,1.5,7.2,4.5,9.7
			c3,2.5,7.1,3.7,12.1,3.7c5,0,9-1.2,12-3.7C267.4,26.9,268.9,23.7,268.9,19.7"/>
		<polygon class="st0" points="318.2,2.1 318.2,31.1 291.2,2.1 284,2.1 284,37.4 289.8,37.4 289.8,8.5 316.8,37.4 324,37.4 324,2.1 
					"/>
	</g>
	<polygon class="st0" points="66.1,1.5 25.1,31.3 9.2,19.7 25.1,8.2 36.4,16.4 41,13.1 25.1,1.5 0,19.7 25.1,38 66.1,8.2 82,19.7 
		66.1,31.3 54.7,23.1 50.2,26.4 66.1,38 91.2,19.7 	"/>
	<path class="st0" d="M334,0.7c-2.2,0-3.9,1.8-3.9,3.9c0,2.1,1.7,3.9,3.9,3.9c2.2,0,3.9-1.8,3.9-3.9C337.9,2.5,336.1,0.7,334,0.7
		 M334,9.2c-2.5,0-4.6-2.1-4.6-4.6c0-2.5,2.1-4.6,4.6-4.6c2.5,0,4.6,2.1,4.6,4.6C338.6,7.2,336.5,9.2,334,9.2 M335,7.2h0.8L334.6,5
		c0.8-0.1,1.2-0.7,1.2-1.4c0-0.8-0.6-1.5-1.5-1.5h-1.9v5.1h0.7V5.1h0.8L335,7.2z M333.1,4.4V2.7h1.1c0.6,0,1,0.3,1,0.9
		c0,0.5-0.4,0.9-1,0.9H333.1z"/>
</g>
<g>
	<path class="st0" d="M390.4,10.2c-4-4.2-9-6-15.5-6c-4.7,0-9.1,1.5-12.2,3.9c-3.8,3-5.7,7-5.7,11.9c0,9.4,7.2,15.8,17.9,15.8
		c7,0,12-1.8,15.5-5.9l2.6,1.7c-3.5,4.6-9.6,7.2-17.7,7.2c-4.6,0-8.6-0.9-12.2-2.8c-6.2-3.2-9.6-9-9.6-16c0-5.6,2.2-10.3,6.6-13.9
		c3.8-3.1,9-4.9,14.8-4.9c8,0,14.5,2.8,18.4,7.9L390.4,10.2z"/>
	<path class="st0" d="M403.3,37.8V2.3h33.1v3.1h-29.9v12.1h20.8v3.1h-20.8v14.2h31.3v3.1H403.3z"/>
	<path class="st0" d="M479.1,37.8L449.1,5.4v32.4H446V2.3h4.6l29.8,32.4V2.3h3.2v35.5H479.1z"/>
	<path class="st0" d="M509.2,5.4v32.4H506V5.4h-17V2.3h37.1v3.1H509.2z"/>
	<path class="st0" d="M565.2,37.8l-11.1-14.6h-19.4v14.6h-3.2V2.3h26.8c6.6,0,10.7,4.1,10.7,10.6c0,6.1-3.8,9.9-10.7,10.3l10.8,14.6
		H565.2z M565.5,12.7c0-5-2.8-7.4-8.6-7.4h-22.2v14.8h23.3C562.8,20.1,565.5,17.4,565.5,12.7z"/>
	<path class="st0" d="M612,37.8l-4.9-9.2h-25l-4.9,9.2h-3.7l18.8-35.5h4.7l18.7,35.5H612z M594.9,5.4h-0.4l-10.7,20.1h21.8
		L594.9,5.4z"/>
	<path class="st0" d="M621.7,37.8V2.3h3.2v32.4h27.4v3.1H621.7z"/>
</g>
</svg>
