<svg viewBox="0 0 90.5 35.6" id="logo-simon"><path class="cfst0" d="M50.5 0l-16 11.7-6.2-4.5 6.2-4.6 4.4 3.3 1.8-1.3L34.5 0l-9.8 7.2 9.8 7.1 16-11.7 6.2 4.6-6.2 4.5-4.4-3.2-1.8 1.3 6.2 4.5 9.8-7.1zm-37 24.5c-2-1-4.1-1.6-6.2-1.6-1.4 0-2.5.2-3.2.5-.8.3-1.1.8-1.1 1.4s.4 1.1 1.2 1.3c.6.2 1.5.3 2.8.4 1.9.1 3.2.2 3.8.3 1.7.2 3 .7 3.8 1.3.8.6 1.2 1.5 1.2 2.6 0 1.5-.6 2.6-1.9 3.4-1.3.8-3.2 1.2-5.6 1.2-3.5 0-6.3-.8-8.2-2.3l1.3-1.7c2.2 1.3 4.5 2 7 2 1.6 0 2.9-.2 3.8-.7.8-.4 1.3-1 1.3-1.8 0-.9-.6-1.5-1.7-1.8-.6-.2-2.2-.3-4.7-.5-2.3-.2-3.9-.5-4.8-.9-1.1-.5-1.6-1.4-1.6-2.7 0-1.3.6-2.3 1.8-3.1 1-.5 2.7-.8 4.9-.8 3 0 5.5.7 7.5 2l-1.4 1.5zm5.5-3.2h2.3v13.8H19zm25.6 13.8h-2.3V23.8h-.1l-7.1 9-7.1-9h-.1v11.3h-2.3V21.3h2.9l6.6 8.3 6.6-8.3h2.9zm18.8-6.9c0-1.6-.7-2.9-2.1-3.9-1.1-.9-2.6-1.3-4.3-1.3-1.9 0-3.5.5-4.7 1.5s-1.8 2.2-1.8 3.7c0 1.6.6 2.8 1.8 3.8s2.8 1.4 4.7 1.4c2 0 3.5-.5 4.7-1.4 1.1-1 1.7-2.3 1.7-3.8m2.4 0c0 2.3-.9 4.1-2.8 5.5-1.6 1.2-3.6 1.8-6.1 1.8-2.4 0-4.5-.6-6.1-1.8-1.9-1.4-2.8-3.2-2.8-5.5 0-2.2.9-4 2.8-5.4 1.7-1.2 3.7-1.9 6.1-1.9 2.4 0 4.4.6 6 1.9 2 1.3 2.9 3.2 2.9 5.4m16.9-6.9v11.3L72.1 21.3h-2.8v13.8h2.3V23.8l10.5 11.3H85V21.3zm6.1-.6c-.8 0-1.5.7-1.5 1.5s.7 1.5 1.5 1.5 1.5-.7 1.5-1.5-.6-1.5-1.5-1.5m0 3.4c-1 0-1.8-.8-1.8-1.8s.8-1.8 1.8-1.8 1.8.8 1.8 1.8-.8 1.8-1.8 1.8m.4-.8h.3l-.5-.8c.3-.1.5-.3.5-.6s-.2-.6-.6-.6h-.7v2h.3v-.8h.3l.4.8zm-.7-1.1v-.7h.4c.2 0 .4.1.4.3 0 .2-.1.3-.4.3h-.4v.1z"></path></svg>
