<svg id="Layer_1" data-name="Layer 1" xmlns="http://www.w3.org/2000/svg" viewBox="0 0 24.74 25"><title>simon_website_socialicons</title><path d="M17.64,0.16H7.09A7.08,7.08,0,0,0,0,7.24V17.79a7.08,7.08,0,0,0,7.08,7.08H17.64a7.08,7.08,0,0,0,7.08-7.08V7.24A7.08,7.08,0,0,0,17.64.16Zm5,16.75a5.89,5.89,0,0,1-5.89,5.89H8A5.89,5.89,0,0,1,2.08,16.9V8.12A5.89,5.89,0,0,1,8,2.23h8.78a5.89,5.89,0,0,1,5.89,5.89V16.9Z"/><path d="M12.43,6.27a6.31,6.31,0,1,0,6.31,6.31A6.31,6.31,0,0,0,12.43,6.27Zm0,10.33a4,4,0,1,1,4-4A4,4,0,0,1,12.43,16.6Z"/><circle cx="18.93" cy="6.02" r="1.61"/></svg>
